<mxfile host="app.diagrams.net" modified="2022-05-07T17:26:58.020Z" agent="5.0 (Windows NT 10.0; Win64; x64) AppleWebKit/537.36 (KHTML, like Gecko) Chrome/100.0.4896.127 Safari/537.36 OPR/86.0.4363.32" etag="SLVa0MtpsCbfd_VMvkH3" version="18.0.1" type="github">
  <diagram id="zviwaN0RhkgaL2fRwE7K" name="Page-1">
    <mxGraphModel dx="1959" dy="644" grid="1" gridSize="10" guides="1" tooltips="1" connect="1" arrows="1" fold="1" page="1" pageScale="1" pageWidth="827" pageHeight="1169" math="0" shadow="0">
      <root>
        <mxCell id="0" />
        <mxCell id="1" parent="0" />
        <mxCell id="ny48SzFpdUDSRc08BS6a-1" value="Empresa Constructora" style="rounded=1;arcSize=10;whiteSpace=wrap;html=1;align=center;fillColor=#FFCC99;" parent="1" vertex="1">
          <mxGeometry x="140" y="140" width="100" height="40" as="geometry" />
        </mxCell>
        <mxCell id="ny48SzFpdUDSRc08BS6a-3" value="Satélite" style="rounded=1;arcSize=10;whiteSpace=wrap;html=1;align=center;fillColor=#FFCC99;" parent="1" vertex="1">
          <mxGeometry x="330" y="240" width="100" height="40" as="geometry" />
        </mxCell>
        <mxCell id="ny48SzFpdUDSRc08BS6a-4" value="Empresa puesta en órbita" style="rounded=1;arcSize=10;whiteSpace=wrap;html=1;align=center;fillColor=#FFCC99;" parent="1" vertex="1">
          <mxGeometry x="520" y="470" width="100" height="40" as="geometry" />
        </mxCell>
        <mxCell id="ny48SzFpdUDSRc08BS6a-6" value="Datos de lanzamiento" style="rounded=1;arcSize=10;whiteSpace=wrap;html=1;align=center;fillColor=#FFCC99;" parent="1" vertex="1">
          <mxGeometry x="140" y="470" width="100" height="40" as="geometry" />
        </mxCell>
        <mxCell id="ny48SzFpdUDSRc08BS6a-7" value="Personal de empresa constructora" style="rounded=1;arcSize=10;whiteSpace=wrap;html=1;align=center;fillColor=#FFCC99;" parent="1" vertex="1">
          <mxGeometry x="320" y="30" width="120" height="40" as="geometry" />
        </mxCell>
        <mxCell id="ny48SzFpdUDSRc08BS6a-9" value="Personal de contacto" style="rounded=1;arcSize=10;whiteSpace=wrap;html=1;align=center;fillColor=#FFCC99;" parent="1" vertex="1">
          <mxGeometry x="330" y="610" width="100" height="40" as="geometry" />
        </mxCell>
        <mxCell id="ny48SzFpdUDSRc08BS6a-10" value="Empresa mantenimiento" style="rounded=1;arcSize=10;whiteSpace=wrap;html=1;align=center;fillColor=#FFCC99;" parent="1" vertex="1">
          <mxGeometry x="720" y="240" width="100" height="40" as="geometry" />
        </mxCell>
        <mxCell id="ny48SzFpdUDSRc08BS6a-12" value="Personal de contacto" style="rounded=1;arcSize=10;whiteSpace=wrap;html=1;align=center;fillColor=#FFCC99;" parent="1" vertex="1">
          <mxGeometry x="720" y="30" width="100" height="40" as="geometry" />
        </mxCell>
        <mxCell id="ny48SzFpdUDSRc08BS6a-54" style="edgeStyle=orthogonalEdgeStyle;rounded=0;orthogonalLoop=1;jettySize=auto;html=1;exitX=1;exitY=0.5;exitDx=0;exitDy=0;" parent="1" source="ny48SzFpdUDSRc08BS6a-15" target="ny48SzFpdUDSRc08BS6a-3" edge="1">
          <mxGeometry relative="1" as="geometry" />
        </mxCell>
        <mxCell id="ny48SzFpdUDSRc08BS6a-15" value="E - S" style="shape=rhombus;perimeter=rhombusPerimeter;whiteSpace=wrap;html=1;align=center;fillColor=#99CCFF;" parent="1" vertex="1">
          <mxGeometry x="130" y="230" width="120" height="60" as="geometry" />
        </mxCell>
        <mxCell id="ny48SzFpdUDSRc08BS6a-16" value="" style="endArrow=none;html=1;rounded=0;exitX=0.5;exitY=1;exitDx=0;exitDy=0;entryX=0.5;entryY=0;entryDx=0;entryDy=0;" parent="1" source="ny48SzFpdUDSRc08BS6a-1" target="ny48SzFpdUDSRc08BS6a-15" edge="1">
          <mxGeometry relative="1" as="geometry">
            <mxPoint x="60" y="260" as="sourcePoint" />
            <mxPoint x="220" y="260" as="targetPoint" />
          </mxGeometry>
        </mxCell>
        <mxCell id="ny48SzFpdUDSRc08BS6a-51" style="edgeStyle=orthogonalEdgeStyle;rounded=0;orthogonalLoop=1;jettySize=auto;html=1;exitX=1;exitY=0.5;exitDx=0;exitDy=0;entryX=0;entryY=0.5;entryDx=0;entryDy=0;" parent="1" source="ny48SzFpdUDSRc08BS6a-18" target="ny48SzFpdUDSRc08BS6a-7" edge="1">
          <mxGeometry relative="1" as="geometry" />
        </mxCell>
        <mxCell id="ny48SzFpdUDSRc08BS6a-18" value="E - P" style="shape=rhombus;perimeter=rhombusPerimeter;whiteSpace=wrap;html=1;align=center;strokeColor=#000000;fillColor=#99CCFF;" parent="1" vertex="1">
          <mxGeometry x="130" y="20" width="120" height="60" as="geometry" />
        </mxCell>
        <mxCell id="ny48SzFpdUDSRc08BS6a-19" value="" style="endArrow=none;html=1;rounded=0;exitX=0.5;exitY=0;exitDx=0;exitDy=0;entryX=0.5;entryY=1;entryDx=0;entryDy=0;" parent="1" source="ny48SzFpdUDSRc08BS6a-1" target="ny48SzFpdUDSRc08BS6a-18" edge="1">
          <mxGeometry relative="1" as="geometry">
            <mxPoint x="400" y="140" as="sourcePoint" />
            <mxPoint x="560" y="140" as="targetPoint" />
          </mxGeometry>
        </mxCell>
        <mxCell id="ny48SzFpdUDSRc08BS6a-50" style="edgeStyle=orthogonalEdgeStyle;rounded=0;orthogonalLoop=1;jettySize=auto;html=1;exitX=1;exitY=0.5;exitDx=0;exitDy=0;entryX=0.25;entryY=1;entryDx=0;entryDy=0;" parent="1" source="ny48SzFpdUDSRc08BS6a-21" target="ny48SzFpdUDSRc08BS6a-3" edge="1">
          <mxGeometry relative="1" as="geometry" />
        </mxCell>
        <mxCell id="ny48SzFpdUDSRc08BS6a-21" value="D - S" style="shape=rhombus;perimeter=rhombusPerimeter;whiteSpace=wrap;html=1;align=center;fillColor=#99CCFF;" parent="1" vertex="1">
          <mxGeometry x="130" y="340" width="120" height="60" as="geometry" />
        </mxCell>
        <mxCell id="ny48SzFpdUDSRc08BS6a-23" value="" style="endArrow=none;html=1;rounded=0;exitX=0.5;exitY=1;exitDx=0;exitDy=0;entryX=0.5;entryY=0;entryDx=0;entryDy=0;" parent="1" source="ny48SzFpdUDSRc08BS6a-21" target="ny48SzFpdUDSRc08BS6a-6" edge="1">
          <mxGeometry relative="1" as="geometry">
            <mxPoint x="150" y="410" as="sourcePoint" />
            <mxPoint x="310" y="410" as="targetPoint" />
          </mxGeometry>
        </mxCell>
        <mxCell id="ny48SzFpdUDSRc08BS6a-53" style="edgeStyle=orthogonalEdgeStyle;rounded=0;orthogonalLoop=1;jettySize=auto;html=1;exitX=0.5;exitY=1;exitDx=0;exitDy=0;entryX=0.5;entryY=0;entryDx=0;entryDy=0;" parent="1" source="ny48SzFpdUDSRc08BS6a-24" target="ny48SzFpdUDSRc08BS6a-9" edge="1">
          <mxGeometry relative="1" as="geometry" />
        </mxCell>
        <mxCell id="ny48SzFpdUDSRc08BS6a-24" value="D - P" style="shape=rhombus;perimeter=rhombusPerimeter;whiteSpace=wrap;html=1;align=center;fillColor=#99CCFF;" parent="1" vertex="1">
          <mxGeometry x="320" y="460" width="120" height="60" as="geometry" />
        </mxCell>
        <mxCell id="ny48SzFpdUDSRc08BS6a-25" value="" style="endArrow=none;html=1;rounded=0;exitX=1;exitY=0.5;exitDx=0;exitDy=0;entryX=0;entryY=0.5;entryDx=0;entryDy=0;" parent="1" source="ny48SzFpdUDSRc08BS6a-6" target="ny48SzFpdUDSRc08BS6a-24" edge="1">
          <mxGeometry relative="1" as="geometry">
            <mxPoint x="350" y="490" as="sourcePoint" />
            <mxPoint x="510" y="490" as="targetPoint" />
          </mxGeometry>
        </mxCell>
        <mxCell id="ny48SzFpdUDSRc08BS6a-49" style="edgeStyle=orthogonalEdgeStyle;rounded=0;orthogonalLoop=1;jettySize=auto;html=1;exitX=0;exitY=0.5;exitDx=0;exitDy=0;entryX=0.75;entryY=1;entryDx=0;entryDy=0;" parent="1" source="ny48SzFpdUDSRc08BS6a-27" target="ny48SzFpdUDSRc08BS6a-3" edge="1">
          <mxGeometry relative="1" as="geometry" />
        </mxCell>
        <mxCell id="ny48SzFpdUDSRc08BS6a-27" value="E - S" style="shape=rhombus;perimeter=rhombusPerimeter;whiteSpace=wrap;html=1;align=center;fillColor=#99CCFF;" parent="1" vertex="1">
          <mxGeometry x="510" y="340" width="120" height="60" as="geometry" />
        </mxCell>
        <mxCell id="ny48SzFpdUDSRc08BS6a-28" value="" style="endArrow=none;html=1;rounded=0;entryX=0.5;entryY=0;entryDx=0;entryDy=0;" parent="1" source="ny48SzFpdUDSRc08BS6a-27" target="ny48SzFpdUDSRc08BS6a-4" edge="1">
          <mxGeometry relative="1" as="geometry">
            <mxPoint x="410" y="450" as="sourcePoint" />
            <mxPoint x="570" y="450" as="targetPoint" />
          </mxGeometry>
        </mxCell>
        <mxCell id="ny48SzFpdUDSRc08BS6a-52" style="edgeStyle=orthogonalEdgeStyle;rounded=0;orthogonalLoop=1;jettySize=auto;html=1;exitX=0.5;exitY=0;exitDx=0;exitDy=0;entryX=0.5;entryY=1;entryDx=0;entryDy=0;" parent="1" source="ny48SzFpdUDSRc08BS6a-31" target="ny48SzFpdUDSRc08BS6a-12" edge="1">
          <mxGeometry relative="1" as="geometry" />
        </mxCell>
        <mxCell id="ny48SzFpdUDSRc08BS6a-31" value="E - P" style="shape=rhombus;perimeter=rhombusPerimeter;whiteSpace=wrap;html=1;align=center;fillColor=#99CCFF;" parent="1" vertex="1">
          <mxGeometry x="710" y="120" width="120" height="60" as="geometry" />
        </mxCell>
        <mxCell id="ny48SzFpdUDSRc08BS6a-32" value="" style="endArrow=none;html=1;rounded=0;exitX=0.5;exitY=0;exitDx=0;exitDy=0;entryX=0.5;entryY=1;entryDx=0;entryDy=0;" parent="1" source="ny48SzFpdUDSRc08BS6a-10" target="ny48SzFpdUDSRc08BS6a-31" edge="1">
          <mxGeometry relative="1" as="geometry">
            <mxPoint x="440" y="270" as="sourcePoint" />
            <mxPoint x="530" y="270" as="targetPoint" />
          </mxGeometry>
        </mxCell>
        <mxCell id="ny48SzFpdUDSRc08BS6a-38" style="edgeStyle=orthogonalEdgeStyle;rounded=0;orthogonalLoop=1;jettySize=auto;html=1;exitX=1;exitY=0.5;exitDx=0;exitDy=0;" parent="1" source="ny48SzFpdUDSRc08BS6a-34" target="ny48SzFpdUDSRc08BS6a-1" edge="1">
          <mxGeometry relative="1" as="geometry" />
        </mxCell>
        <mxCell id="ny48SzFpdUDSRc08BS6a-34" value="P - E" style="shape=rhombus;perimeter=rhombusPerimeter;whiteSpace=wrap;html=1;align=center;fillColor=#99CCFF;" parent="1" vertex="1">
          <mxGeometry x="-70" y="130" width="120" height="60" as="geometry" />
        </mxCell>
        <mxCell id="ny48SzFpdUDSRc08BS6a-36" value="" style="endArrow=none;html=1;rounded=0;exitX=0.5;exitY=1;exitDx=0;exitDy=0;" parent="1" source="ny48SzFpdUDSRc08BS6a-34" target="ny48SzFpdUDSRc08BS6a-37" edge="1">
          <mxGeometry relative="1" as="geometry">
            <mxPoint x="30" y="250" as="sourcePoint" />
            <mxPoint x="-10" y="280" as="targetPoint" />
          </mxGeometry>
        </mxCell>
        <mxCell id="ny48SzFpdUDSRc08BS6a-37" value="País" style="rounded=1;arcSize=10;whiteSpace=wrap;html=1;align=center;fillColor=#FFCC99;" parent="1" vertex="1">
          <mxGeometry x="-80" y="690" width="140" height="40" as="geometry" />
        </mxCell>
        <mxCell id="ny48SzFpdUDSRc08BS6a-43" style="edgeStyle=orthogonalEdgeStyle;rounded=0;orthogonalLoop=1;jettySize=auto;html=1;exitX=0;exitY=0.5;exitDx=0;exitDy=0;" parent="1" source="ny48SzFpdUDSRc08BS6a-39" target="ny48SzFpdUDSRc08BS6a-10" edge="1">
          <mxGeometry relative="1" as="geometry" />
        </mxCell>
        <mxCell id="ny48SzFpdUDSRc08BS6a-39" value="P - E" style="shape=rhombus;perimeter=rhombusPerimeter;whiteSpace=wrap;html=1;align=center;fillColor=#99CCFF;" parent="1" vertex="1">
          <mxGeometry x="900" y="230" width="120" height="60" as="geometry" />
        </mxCell>
        <mxCell id="ny48SzFpdUDSRc08BS6a-40" value="" style="endArrow=none;html=1;rounded=0;exitX=0.5;exitY=1;exitDx=0;exitDy=0;entryX=0.75;entryY=1;entryDx=0;entryDy=0;" parent="1" source="ny48SzFpdUDSRc08BS6a-39" target="ny48SzFpdUDSRc08BS6a-37" edge="1">
          <mxGeometry relative="1" as="geometry">
            <mxPoint x="810" y="350" as="sourcePoint" />
            <mxPoint x="770" y="380" as="targetPoint" />
            <Array as="points">
              <mxPoint x="960" y="770" />
              <mxPoint x="770" y="770" />
              <mxPoint x="25" y="770" />
            </Array>
          </mxGeometry>
        </mxCell>
        <mxCell id="ny48SzFpdUDSRc08BS6a-48" style="edgeStyle=orthogonalEdgeStyle;rounded=0;orthogonalLoop=1;jettySize=auto;html=1;exitX=0.5;exitY=0;exitDx=0;exitDy=0;entryX=0.5;entryY=1;entryDx=0;entryDy=0;" parent="1" source="ny48SzFpdUDSRc08BS6a-44" target="ny48SzFpdUDSRc08BS6a-4" edge="1">
          <mxGeometry relative="1" as="geometry" />
        </mxCell>
        <mxCell id="ny48SzFpdUDSRc08BS6a-44" value="P - E" style="shape=rhombus;perimeter=rhombusPerimeter;whiteSpace=wrap;html=1;align=center;fillColor=#99CCFF;" parent="1" vertex="1">
          <mxGeometry x="510" y="570" width="120" height="60" as="geometry" />
        </mxCell>
        <mxCell id="ny48SzFpdUDSRc08BS6a-47" value="" style="endArrow=none;html=1;rounded=0;exitX=1;exitY=0.5;exitDx=0;exitDy=0;entryX=0.5;entryY=1;entryDx=0;entryDy=0;" parent="1" source="ny48SzFpdUDSRc08BS6a-37" target="ny48SzFpdUDSRc08BS6a-44" edge="1">
          <mxGeometry relative="1" as="geometry">
            <mxPoint x="570" y="690.0000000000002" as="sourcePoint" />
            <mxPoint x="440" y="720" as="targetPoint" />
            <Array as="points">
              <mxPoint x="570" y="710" />
            </Array>
          </mxGeometry>
        </mxCell>
        <mxCell id="zSTayougMneBb2hl2qhU-1" value="Tiene" style="text;html=1;strokeColor=none;fillColor=none;align=center;verticalAlign=middle;whiteSpace=wrap;rounded=0;" vertex="1" parent="1">
          <mxGeometry x="57" y="127" width="60" height="30" as="geometry" />
        </mxCell>
        <mxCell id="zSTayougMneBb2hl2qhU-3" value="Pertenece" style="text;html=1;strokeColor=none;fillColor=none;align=center;verticalAlign=middle;whiteSpace=wrap;rounded=0;rotation=-90;" vertex="1" parent="1">
          <mxGeometry x="-60" y="420" width="60" height="30" as="geometry" />
        </mxCell>
        <mxCell id="zSTayougMneBb2hl2qhU-4" value="Pertenece" style="text;html=1;strokeColor=none;fillColor=none;align=center;verticalAlign=middle;whiteSpace=wrap;rounded=0;" vertex="1" parent="1">
          <mxGeometry x="250" y="670" width="60" height="30" as="geometry" />
        </mxCell>
        <mxCell id="zSTayougMneBb2hl2qhU-5" value="Pertenece" style="text;html=1;strokeColor=none;fillColor=none;align=center;verticalAlign=middle;whiteSpace=wrap;rounded=0;" vertex="1" parent="1">
          <mxGeometry x="390" y="740" width="60" height="30" as="geometry" />
        </mxCell>
        <mxCell id="zSTayougMneBb2hl2qhU-6" value="(1:n)" style="text;html=1;strokeColor=none;fillColor=none;align=center;verticalAlign=middle;whiteSpace=wrap;rounded=0;" vertex="1" parent="1">
          <mxGeometry x="-140" y="180" width="60" height="30" as="geometry" />
        </mxCell>
        <mxCell id="zSTayougMneBb2hl2qhU-7" value="(1:n)" style="text;html=1;strokeColor=none;fillColor=none;align=center;verticalAlign=middle;whiteSpace=wrap;rounded=0;" vertex="1" parent="1">
          <mxGeometry x="610" y="620" width="60" height="30" as="geometry" />
        </mxCell>
        <mxCell id="zSTayougMneBb2hl2qhU-8" value="(1:n)" style="text;html=1;strokeColor=none;fillColor=none;align=center;verticalAlign=middle;whiteSpace=wrap;rounded=0;" vertex="1" parent="1">
          <mxGeometry x="990" y="280" width="60" height="30" as="geometry" />
        </mxCell>
        <mxCell id="zSTayougMneBb2hl2qhU-9" value="(n:m)" style="text;html=1;strokeColor=none;fillColor=none;align=center;verticalAlign=middle;whiteSpace=wrap;rounded=0;" vertex="1" parent="1">
          <mxGeometry x="90" y="260" width="60" height="30" as="geometry" />
        </mxCell>
        <mxCell id="zSTayougMneBb2hl2qhU-10" value="Construye" style="text;html=1;strokeColor=none;fillColor=none;align=center;verticalAlign=middle;whiteSpace=wrap;rounded=0;" vertex="1" parent="1">
          <mxGeometry x="255" y="233" width="60" height="30" as="geometry" />
        </mxCell>
        <mxCell id="zSTayougMneBb2hl2qhU-12" value="son construidas&amp;nbsp;" style="text;html=1;strokeColor=none;fillColor=none;align=center;verticalAlign=middle;whiteSpace=wrap;rounded=0;rotation=0;" vertex="1" parent="1">
          <mxGeometry x="90" y="190" width="100" height="30" as="geometry" />
        </mxCell>
        <mxCell id="zSTayougMneBb2hl2qhU-13" value="(1:n)" style="text;html=1;strokeColor=none;fillColor=none;align=center;verticalAlign=middle;whiteSpace=wrap;rounded=0;" vertex="1" parent="1">
          <mxGeometry x="70" y="40" width="60" height="30" as="geometry" />
        </mxCell>
        <mxCell id="zSTayougMneBb2hl2qhU-14" value="tiene" style="text;html=1;strokeColor=none;fillColor=none;align=center;verticalAlign=middle;whiteSpace=wrap;rounded=0;" vertex="1" parent="1">
          <mxGeometry x="250" y="50" width="60" height="30" as="geometry" />
        </mxCell>
        <mxCell id="zSTayougMneBb2hl2qhU-15" value="pertenece" style="text;html=1;strokeColor=none;fillColor=none;align=center;verticalAlign=middle;whiteSpace=wrap;rounded=0;" vertex="1" parent="1">
          <mxGeometry x="196" y="97" width="60" height="30" as="geometry" />
        </mxCell>
        <mxCell id="zSTayougMneBb2hl2qhU-17" value="(n:m)" style="text;html=1;strokeColor=none;fillColor=none;align=center;verticalAlign=middle;whiteSpace=wrap;rounded=0;" vertex="1" parent="1">
          <mxGeometry x="640" y="355" width="60" height="30" as="geometry" />
        </mxCell>
        <mxCell id="zSTayougMneBb2hl2qhU-18" value="pone en órbita" style="text;html=1;strokeColor=none;fillColor=none;align=center;verticalAlign=middle;whiteSpace=wrap;rounded=0;" vertex="1" parent="1">
          <mxGeometry x="420" y="340" width="90" height="30" as="geometry" />
        </mxCell>
        <mxCell id="zSTayougMneBb2hl2qhU-19" value="son puestos en órbita" style="text;html=1;strokeColor=none;fillColor=none;align=center;verticalAlign=middle;whiteSpace=wrap;rounded=0;" vertex="1" parent="1">
          <mxGeometry x="572" y="430" width="120" height="30" as="geometry" />
        </mxCell>
        <mxCell id="zSTayougMneBb2hl2qhU-20" value="(1:n)" style="text;html=1;strokeColor=none;fillColor=none;align=center;verticalAlign=middle;whiteSpace=wrap;rounded=0;" vertex="1" parent="1">
          <mxGeometry x="60" y="355" width="60" height="30" as="geometry" />
        </mxCell>
        <mxCell id="zSTayougMneBb2hl2qhU-22" value="pertenece a" style="text;html=1;strokeColor=none;fillColor=none;align=center;verticalAlign=middle;whiteSpace=wrap;rounded=0;" vertex="1" parent="1">
          <mxGeometry x="260" y="340" width="70" height="30" as="geometry" />
        </mxCell>
        <mxCell id="zSTayougMneBb2hl2qhU-23" value="tiene" style="text;html=1;strokeColor=none;fillColor=none;align=center;verticalAlign=middle;whiteSpace=wrap;rounded=0;" vertex="1" parent="1">
          <mxGeometry x="117" y="420" width="60" height="30" as="geometry" />
        </mxCell>
        <mxCell id="zSTayougMneBb2hl2qhU-25" value="(n:m)" style="text;html=1;strokeColor=none;fillColor=none;align=center;verticalAlign=middle;whiteSpace=wrap;rounded=0;" vertex="1" parent="1">
          <mxGeometry x="400" y="500" width="60" height="30" as="geometry" />
        </mxCell>
        <mxCell id="zSTayougMneBb2hl2qhU-26" value="está en" style="text;html=1;strokeColor=none;fillColor=none;align=center;verticalAlign=middle;whiteSpace=wrap;rounded=0;" vertex="1" parent="1">
          <mxGeometry x="250" y="450" width="60" height="30" as="geometry" />
        </mxCell>
        <mxCell id="zSTayougMneBb2hl2qhU-27" value="tiene" style="text;html=1;strokeColor=none;fillColor=none;align=center;verticalAlign=middle;whiteSpace=wrap;rounded=0;" vertex="1" parent="1">
          <mxGeometry x="315" y="554.5" width="60" height="30" as="geometry" />
        </mxCell>
        <mxCell id="zSTayougMneBb2hl2qhU-28" value="tiene" style="text;html=1;strokeColor=none;fillColor=none;align=center;verticalAlign=middle;whiteSpace=wrap;rounded=0;" vertex="1" parent="1">
          <mxGeometry x="570" y="530" width="60" height="30" as="geometry" />
        </mxCell>
        <mxCell id="zSTayougMneBb2hl2qhU-29" value="tiene" style="text;html=1;strokeColor=none;fillColor=none;align=center;verticalAlign=middle;whiteSpace=wrap;rounded=0;" vertex="1" parent="1">
          <mxGeometry x="650" y="230" width="60" height="30" as="geometry" />
        </mxCell>
        <mxCell id="zSTayougMneBb2hl2qhU-31" style="edgeStyle=orthogonalEdgeStyle;rounded=0;orthogonalLoop=1;jettySize=auto;html=1;exitX=0;exitY=0.5;exitDx=0;exitDy=0;entryX=1;entryY=0.5;entryDx=0;entryDy=0;" edge="1" parent="1" source="zSTayougMneBb2hl2qhU-30" target="ny48SzFpdUDSRc08BS6a-3">
          <mxGeometry relative="1" as="geometry" />
        </mxCell>
        <mxCell id="zSTayougMneBb2hl2qhU-30" value="E - S&amp;nbsp;" style="shape=rhombus;perimeter=rhombusPerimeter;whiteSpace=wrap;html=1;align=center;fillColor=#99CCFF;" vertex="1" parent="1">
          <mxGeometry x="510" y="230" width="120" height="60" as="geometry" />
        </mxCell>
        <mxCell id="zSTayougMneBb2hl2qhU-32" value="" style="endArrow=none;html=1;rounded=0;exitX=1;exitY=0.5;exitDx=0;exitDy=0;" edge="1" parent="1" source="zSTayougMneBb2hl2qhU-30" target="ny48SzFpdUDSRc08BS6a-10">
          <mxGeometry relative="1" as="geometry">
            <mxPoint x="700" y="350" as="sourcePoint" />
            <mxPoint x="860" y="350" as="targetPoint" />
          </mxGeometry>
        </mxCell>
        <mxCell id="zSTayougMneBb2hl2qhU-33" value="mantiene" style="text;html=1;strokeColor=none;fillColor=none;align=center;verticalAlign=middle;whiteSpace=wrap;rounded=0;" vertex="1" parent="1">
          <mxGeometry x="450" y="230" width="60" height="30" as="geometry" />
        </mxCell>
        <mxCell id="zSTayougMneBb2hl2qhU-35" value="(n:m)" style="text;html=1;strokeColor=none;fillColor=none;align=center;verticalAlign=middle;whiteSpace=wrap;rounded=0;" vertex="1" parent="1">
          <mxGeometry x="572" y="200" width="60" height="30" as="geometry" />
        </mxCell>
        <mxCell id="zSTayougMneBb2hl2qhU-37" value="tiene" style="text;html=1;strokeColor=none;fillColor=none;align=center;verticalAlign=middle;whiteSpace=wrap;rounded=0;" vertex="1" parent="1">
          <mxGeometry x="840" y="230" width="60" height="30" as="geometry" />
        </mxCell>
        <mxCell id="zSTayougMneBb2hl2qhU-38" value="tiene" style="text;html=1;strokeColor=none;fillColor=none;align=center;verticalAlign=middle;whiteSpace=wrap;rounded=0;" vertex="1" parent="1">
          <mxGeometry x="690" y="80" width="60" height="30" as="geometry" />
        </mxCell>
        <mxCell id="zSTayougMneBb2hl2qhU-39" value="pertenece" style="text;html=1;strokeColor=none;fillColor=none;align=center;verticalAlign=middle;whiteSpace=wrap;rounded=0;" vertex="1" parent="1">
          <mxGeometry x="790" y="190" width="60" height="30" as="geometry" />
        </mxCell>
        <mxCell id="zSTayougMneBb2hl2qhU-41" value="(1:n)" style="text;html=1;strokeColor=none;fillColor=none;align=center;verticalAlign=middle;whiteSpace=wrap;rounded=0;" vertex="1" parent="1">
          <mxGeometry x="820" y="110" width="60" height="30" as="geometry" />
        </mxCell>
        <mxCell id="zSTayougMneBb2hl2qhU-43" style="edgeStyle=orthogonalEdgeStyle;rounded=0;orthogonalLoop=1;jettySize=auto;html=1;exitX=0.5;exitY=0;exitDx=0;exitDy=0;entryX=0.5;entryY=1;entryDx=0;entryDy=0;" edge="1" parent="1" source="zSTayougMneBb2hl2qhU-42" target="ny48SzFpdUDSRc08BS6a-6">
          <mxGeometry relative="1" as="geometry" />
        </mxCell>
        <mxCell id="zSTayougMneBb2hl2qhU-42" value="P - D" style="shape=rhombus;perimeter=rhombusPerimeter;whiteSpace=wrap;html=1;align=center;fillColor=#99CCFF;" vertex="1" parent="1">
          <mxGeometry x="130" y="570" width="120" height="60" as="geometry" />
        </mxCell>
        <mxCell id="zSTayougMneBb2hl2qhU-44" value="" style="endArrow=none;html=1;rounded=0;exitX=0.75;exitY=0;exitDx=0;exitDy=0;entryX=0;entryY=0.5;entryDx=0;entryDy=0;" edge="1" parent="1" source="ny48SzFpdUDSRc08BS6a-37" target="zSTayougMneBb2hl2qhU-42">
          <mxGeometry relative="1" as="geometry">
            <mxPoint x="30" y="550" as="sourcePoint" />
            <mxPoint x="190" y="550" as="targetPoint" />
            <Array as="points">
              <mxPoint x="25" y="600" />
            </Array>
          </mxGeometry>
        </mxCell>
        <mxCell id="zSTayougMneBb2hl2qhU-46" value="(1:n)" style="text;html=1;strokeColor=none;fillColor=none;align=center;verticalAlign=middle;whiteSpace=wrap;rounded=0;" vertex="1" parent="1">
          <mxGeometry x="120" y="620" width="60" height="30" as="geometry" />
        </mxCell>
        <mxCell id="zSTayougMneBb2hl2qhU-47" value="tiene" style="text;html=1;strokeColor=none;fillColor=none;align=center;verticalAlign=middle;whiteSpace=wrap;rounded=0;" vertex="1" parent="1">
          <mxGeometry x="117" y="530" width="60" height="30" as="geometry" />
        </mxCell>
        <mxCell id="zSTayougMneBb2hl2qhU-49" value="pertenece" style="text;html=1;strokeColor=none;fillColor=none;align=center;verticalAlign=middle;whiteSpace=wrap;rounded=0;" vertex="1" parent="1">
          <mxGeometry x="50" y="570" width="60" height="30" as="geometry" />
        </mxCell>
      </root>
    </mxGraphModel>
  </diagram>
</mxfile>
